# xmcd
#
# Track frame offsets: 
#        183
#        19653
#        39545
#        58695
#        77523
#        95808
#        117038
#        141033
#        160303
#        180758
#
# Disc length: 2661 seconds
#
# Revision: 4
# Processed by: cddbd v1.5.2PL0 Copyright (c) Steve Scherf et al.
# Submitted via: ExactAudioCopy v1.3
#
DISCID=740a630a
DTITLE=Eddy Mitchell - Ici Londres
DYEAR=1989
DGENRE=Blues
TTITLE0=Leche-bottes blues
TTITLE1=Mon coeur vinyle
TTITLE2=Under the rainbow
TTITLE3=Me laisse pas tomber
TTITLE4=Du déja vu
TTITLE5=On m'a dit que
TTITLE6=Le baby blues
TTITLE7=Tache d'huile
TTITLE8=Les lionnes de mer
TTITLE9=Comment fais-tu pour dormir
EXTD=YEAR: 1989
EXTT0=
EXTT1=
EXTT2=
EXTT3=
EXTT4=
EXTT5=
EXTT6=
EXTT7=
EXTT8=
EXTT9=
PLAYORDER=
